<svg xmlns="http://www.w3.org/2000/svg" viewBox="0 0 200 200" fill="none">
  <!-- Python — two interlocked chunky snakes, official blue+yellow palette -->
  <!-- Blue snake body (top-left) -->
  <path d="M100,14 C72,14 56,26 56,42 L56,62 L100,62 L100,72 L42,72 C28,72 18,84 18,100 C18,116 28,128 42,128 L56,128 L56,110 C56,96 66,88 80,88 L120,88 C132,88 140,80 140,68 L140,42 C140,26 126,14 100,14 Z" fill="#3776AB" stroke="#1a1a1a" stroke-width="4" stroke-linejoin="round"/>
  <!-- Yellow snake body (bottom-right) -->
  <path d="M100,186 C128,186 144,174 144,158 L144,138 L100,138 L100,128 L158,128 C172,128 182,116 182,100 C182,84 172,72 158,72 L144,72 L144,90 C144,104 134,112 120,112 L80,112 C68,112 60,120 60,132 L60,158 C60,174 74,186 100,186 Z" fill="#FFD43B" stroke="#1a1a1a" stroke-width="4" stroke-linejoin="round"/>
  <!-- Snake eyes -->
  <circle cx="82" cy="34" r="7" fill="white" stroke="#1a1a1a" stroke-width="2.5"/>
  <circle cx="84" cy="35" r="3.5" fill="#1a1a1a"/>
  <circle cx="118" cy="166" r="7" fill="white" stroke="#1a1a1a" stroke-width="2.5"/>
  <circle cx="120" cy="167" r="3.5" fill="#1a1a1a"/>
</svg>
